<svg width="699" height="726" viewBox="0 0 699 726" fill="none" xmlns="http://www.w3.org/2000/svg">
<path d="M146.789 50.695V46.3828L154.744 49.617H160.995L162.7 53.9292L171.223 55.5463H174.632L176.905 62.0146V67.9439L178.61 71.178L180.883 70.1L185.997 74.4122V77.6463H188.27L190.543 80.8805L196.225 84.1146L193.952 90.583H198.498L202.476 92.7391L208.158 98.6683V100.824L203.044 98.6683L199.635 94.3561L196.793 95.4342H193.384L192.816 97.5903L189.406 98.6683L187.133 100.824L182.588 104.598L180.315 102.981V113.761H176.337L173.496 116.995H168.95L166.677 119.69L164.404 116.995H154.744L151.903 115.378V108.91H145.653V106.754L142.243 101.363L137.697 97.5903L134.288 93.8171L138.266 90.583V85.1927L134.288 84.1146V78.7244L138.266 76.5683L139.97 73.3341H132.583L132.015 69.0219L134.288 67.9439V64.1707H129.174V58.2414H134.288L135.424 55.0072H137.697L139.97 50.695H146.789Z" fill="#F5E8E8" fill-opacity="0.6" stroke="#FD0808"/>
<path d="M222.934 103.851L224.055 102.21L227.978 103.851L230.78 108.225V110.959H233.582H238.625L243.669 118.615V121.895L244.789 125.723L248.152 128.457L249.833 131.191L248.152 135.566L250.954 139.394L248.152 145.409L251.514 147.049L253.195 148.689H250.954L249.833 150.877H245.91L239.746 148.689L237.504 150.33H233.582L229.659 153.064L226.857 156.892L225.176 161.266L225.736 164.547L226.857 167.828L225.736 169.469L224.055 170.562L222.934 172.749L217.891 171.656H215.649L212.287 167.828L211.166 163.454L204.441 159.626L200.519 156.892V152.517L197.156 147.596H187.63V140.487L184.267 135.566L183.707 132.832L179.784 128.457H176.982V121.895H179.784L182.026 117.521L180.905 114.24V102.757L183.707 104.944L190.432 98.9292L193.234 97.8356L194.354 95.6483H197.156L199.958 94.5547L203.321 98.9292L208.364 101.116L212.287 103.851H222.934Z" fill="#F5E8E8" fill-opacity="0.6" stroke="#FD0808"/>
<path d="M173.491 117.369L175.761 114.098H180.3L181.434 117.914L179.165 121.73H176.328V128.817H179.165L183.704 133.178V135.903L187.108 140.265V147.351H196.753L200.157 152.258L200.725 157.164L204.129 159.345L201.292 160.98L202.427 165.886L204.696 170.793V172.973H201.292L197.888 178.425L193.916 180.605L191.08 179.515L188.243 182.786V186.057L185.973 188.237L183.136 189.328H170.654L167.25 190.963L165.548 193.689L163.846 190.418L162.144 186.057L159.307 185.512L155.903 184.421H150.229L147.96 185.512L144.555 184.421H137.18L132.641 180.605V171.883L138.314 164.796L149.094 154.983V144.626L146.257 137.539L153.066 129.362L158.74 126.091L164.981 123.365L166.683 120.639L168.952 117.369H173.491Z" fill="#F5E8E8" fill-opacity="0.6" stroke="#FD0808"/>
<path d="M226.808 174.333L223.404 172.175V169.857L225.674 168.938L226.808 167.319L225.106 164.082V160.845L226.808 156.529L230.212 152.753L234.184 150.056H238.722L239.857 148.437L246.665 150.056H250.069L251.771 148.437H253.473L258.579 144.121L259.713 145.74L260.848 150.056L266.521 154.911L269.925 157.608L278.435 158.148L280.705 158.687L282.407 162.464L284.676 164.082L286.945 168.398L296.022 170.556L298.292 172.175L301.696 175.951V177.57L299.426 180.807L296.022 181.886L294.888 185.123L291.484 187.281L289.214 190.517V193.215V195.912L286.945 199.149V204.005L285.81 206.702L282.407 209.4V213.716L280.705 215.334L277.868 213.716H273.329L269.358 211.018L267.656 212.637L264.819 211.018L260.848 206.702H257.444L253.473 204.005L251.771 201.307L253.473 198.07L250.069 195.912L245.53 192.136L243.261 189.438L241.559 185.123L236.453 183.504V189.438L234.184 192.136H229.078L226.808 189.438L227.943 183.504V181.886L229.078 178.649V175.951L226.808 174.333Z" fill="#F5E8E8" fill-opacity="0.6" stroke="#FD0808"/>
<path d="M162.008 203.254H169.942V205.968V210.853L172.776 213.567V217.91L176.176 221.166L177.876 224.966L182.976 230.394V239.621L186.943 241.792L188.643 236.364L192.61 235.279V230.394L197.71 236.364L199.977 235.279L201.111 231.479H202.811L203.944 235.279V241.792L207.344 245.049L211.878 242.878L215.845 246.135V249.934L219.245 254.276V258.076L221.512 260.247L217.545 263.504L215.845 267.303L217.545 268.389L228.312 263.504H230.012L234.546 265.132V268.389L230.012 272.189H228.312L226.046 275.445H223.779L219.245 277.616H214.145L211.878 281.959H209.611L207.344 284.673L201.111 287.387L198.844 290.643L196.01 292.272L194.877 296.614L196.01 299.871L197.71 302.042L202.244 304.213L211.878 303.67L214.145 302.042H217.545V310.727H207.344L203.944 311.269V313.983L202.811 317.24L203.944 321.039H209.611L207.911 323.753L205.644 327.553H203.944V335.695L198.844 334.609L196.01 332.438H185.81V334.609V337.866L182.41 339.494V342.208H172.209V339.494L177.876 337.866V326.467H182.41L177.876 321.039L173.909 319.411H167.675L163.708 317.24L164.842 315.069L162.575 312.898L159.175 316.154L156.341 317.24L154.641 324.839V333.524L158.041 336.78V348.179L156.341 350.893L150.674 352.521L148.407 354.692V356.321L150.674 357.949H152.941V360.663L148.407 363.92H141.607V361.749H139.907L137.073 357.949L133.673 356.321L129.706 352.521L122.339 348.179L120.072 343.837V339.494H116.672L113.272 336.78L114.972 333.524V330.267L113.272 327.553H97.9711L94.0042 324.839L91.7374 321.039L87.2037 322.668H73.0362L68.5026 321.039L62.8356 322.668V319.411L60.5688 315.069V311.812L53.7684 305.299V296.614H52.0683L45.2678 295.528L40.1675 290.643V273.817L37.334 272.189H32.2337L27.7001 269.475L26 266.761V259.162L29.4002 256.99L32.2337 251.563L37.334 247.763L38.4674 245.592L40.1675 239.621L45.2678 237.45L48.1014 233.651L52.0683 235.822L56.0352 239.621L57.1686 243.421H62.8356L66.8025 239.621H82.1034L83.8035 233.651L87.2037 229.308H88.9038L94.0042 217.91L97.9711 215.738L103.071 211.939L106.472 210.853L109.305 207.597L111.572 201.083L114.405 197.284L116.106 191.856V188.599L122.906 183.171L128.006 181H132.54L137.073 185.342H143.874L146.707 189.685L148.407 194.57V197.284L150.674 201.083H154.074V197.284L156.908 201.083L162.008 203.254Z" fill="#F5E8E8" fill-opacity="0.6" stroke="#FD0808"/>
<path d="M63.0337 326.364V322.551L69.801 321.461L73.1847 322.551H88.4112L91.7948 321.461L94.0506 324.185L97.4342 327.454H113.225L114.916 330.723V333.992L113.789 336.716L117.172 339.985H119.992V343.799L122.812 349.247L130.143 352.516L134.091 356.33L137.474 358.509L140.294 362.323H141.986V365.047L146.497 369.951L144.805 373.22H141.986L138.602 375.399V378.123V391.744H134.654L129.015 395.558V398.827L132.963 400.462H138.602L134.654 402.641L132.963 406.455L129.015 409.724H125.067L122.812 411.358L130.707 414.082V421.71L129.015 424.434H125.067L121.12 423.344L119.992 427.703V435.331H113.789L109.841 432.607L105.893 433.696V438.055H101.946L104.202 431.517L105.893 424.434L108.713 421.71L105.893 416.806V414.082L101.946 411.358V402.641L105.852 400.439L100.818 397.737L101.946 391.744H97.4342V387.386L99.69 385.206H94.0506V391.744H90.6669V395.558L94.0506 398.827V402.641L90.6669 409.724L83.3357 414.082L77.6962 415.172L69.801 419.531L63.0337 421.71H57.3943L54.0106 419.531L48.9352 415.172L44.9876 414.082L42.1678 409.724L35.9645 406.455L30.325 400.462L26.9414 398.827L25.2495 393.924H21.8659L19.0462 389.02L15.0986 385.206V380.303L19.0462 377.579L21.8659 380.303H25.2495L28.6332 377.579L32.0169 378.123L38.2202 377.579L44.9876 373.22L46.6794 367.227L50.063 365.047L52.3188 362.323L46.6794 363.413L44.9876 365.047H40.476L33.1447 367.227L30.325 369.951H26.9414L21.8659 367.227H19.0462L13.4067 365.047L10.587 361.234L5.51154 357.42L2.12789 353.606L1 349.247V345.434L5.51154 343.799L7.20337 338.351V335.082L8.8952 330.723L26.9414 331.268L30.325 335.082H33.1447H38.2202L40.476 332.902L44.9876 331.268H48.9352L50.063 329.089H51.1909V332.902H57.3943L60.214 330.723L63.0337 326.364Z" fill="#F5E8E8" fill-opacity="0.6" stroke="#FD0808"/>
<path d="M228.733 176.56L222.485 172.75L221.917 175.471L219.076 177.648L217.94 179.825L212.828 184.724L212.26 188.533L209.988 190.711L208.852 193.976V197.786L211.124 199.963V208.127L209.988 211.392L215.1 216.291V222.822L217.94 225.543L220.212 231.53V234.795L219.076 239.149L217.372 240.782L215.1 240.238L211.124 242.415L215.668 246.225L216.236 250.035L219.076 254.389V258.199L221.349 260.376L217.372 263.641L215.668 267.451L217.94 268.539L227.597 263.641H229.869L233.846 265.274H235.55L243.502 268.539L246.343 267.995L252.023 269.628L256.567 274.526V281.057L254.295 282.146V286.5L250.887 291.943L248.615 296.841H245.775L244.07 300.651H239.526L237.254 302.283V306.093L239.526 307.726L240.094 312.08L237.822 314.257H236.118V317.523L237.254 319.7V327.319L240.662 328.408L242.934 330.585L246.343 333.306L249.183 333.85L251.455 332.218H254.295V327.864L252.023 323.51H250.319L248.615 319.155L248.047 316.434L245.207 312.08V306.093L248.615 304.46L252.023 302.828H254.295V308.27L256.567 309.359L262.816 308.815L266.792 312.08H273.609L275.881 308.815L278.721 307.726L279.857 306.093H287.242V312.08H290.082L294.058 310.447H300.307L299.171 314.257L300.307 316.434H304.851L305.987 315.346L309.964 310.447L316.78 310.992L319.621 312.08L322.461 314.801L326.437 316.434L330.413 317.523L335.526 321.877H343.479L346.319 324.054L346.887 343.103H356.544L358.816 339.293L361.088 336.027L362.224 332.218L363.928 330.041L362.224 327.319V326.231H365.064L365.632 321.877L363.36 319.155L360.52 317.523L359.952 314.257V310.992L362.792 307.182L364.496 305.549L368.473 304.46L370.177 302.828L373.585 301.195L376.425 299.018L378.697 296.841L380.97 296.297L384.378 297.385L389.49 296.297L391.762 294.12L388.354 291.398L384.946 290.31L380.97 287.588L378.697 285.411V283.779L377.561 281.602H380.402V279.425L377.561 276.703L375.289 275.071L378.697 271.805H384.378V266.907L377.561 261.464L373.017 253.844V252.212H368.473L366.2 250.579L361.088 250.035V251.667L359.384 253.844L357.68 250.579L346.887 250.035L346.319 246.225L345.183 244.048H335.526L332.686 239.149H326.437L319.053 236.972L315.076 234.795L308.26 229.353L302.579 226.087L299.171 222.277L295.195 220.1H290.65L286.674 218.468L282.13 214.658L280.425 216.291L277.585 214.658H273.041L269.064 211.937L267.36 213.569L263.952 211.392L261.112 207.583H257.135L253.159 204.861L251.455 202.14L253.159 198.874L250.319 197.242L245.207 192.888L242.934 190.166L241.23 185.812L236.118 184.179V190.166L233.846 192.888H228.733L226.461 190.166L227.597 184.724V182.547L228.733 179.281V176.56Z" fill="#FD0808" stroke="#F51F1F"/>
<path d="M142.955 391.617H140.133H139.568V375.778L142.955 373.594H145.778L147.471 370.317L142.955 365.401V364.309H149.164L153.68 361.032V358.301H151.422L149.164 356.662V355.024L151.422 352.839L157.067 351.201L158.76 348.47V337L155.374 333.723V324.985L157.067 317.338L159.889 316.246L163.276 312.969L165.534 315.154L164.405 317.338L168.356 319.523H175.13L178.517 321.162L183.033 326.623H178.517V338.093L172.872 339.731V341.916L183.033 342.462L183.597 339.731L186.419 338.093V332.631H196.58L199.402 334.816L204.482 335.908V327.716H206.176L210.127 321.162H204.482L203.353 317.338L204.482 314.061V311.331L207.869 310.784H218.03V302.046H214.643L212.385 303.684L202.789 304.23L198.273 302.046L196.58 299.861L195.451 296.584L196.58 292.215L199.402 290.576L201.66 287.299L207.869 284.568L210.127 281.837H212.385L214.643 277.468H219.723L224.239 275.283H226.497L228.755 272.006H230.448L234.964 268.183V264.906H236.093L243.995 268.183L246.818 267.637L252.462 269.276L256.978 274.191V280.745L254.72 281.837V286.207L251.333 291.668L249.075 296.584H246.253L244.56 300.407H240.044L237.786 302.046V305.869L240.044 307.507L240.608 311.877L238.351 314.061H236.657V317.338L237.786 319.523V327.169L241.173 328.262L243.431 330.446L246.818 333.177L249.64 333.723L251.898 332.085H254.72V327.716L252.462 323.346H250.769L249.075 318.977L248.511 316.246L245.689 311.877V305.869L252.462 302.592H254.72V308.053L256.978 309.146L263.187 308.6L267.139 311.877H273.912L276.17 308.6L278.992 307.507L280.121 305.869H287.459V311.877H290.282L294.233 310.238H300.442L299.313 314.061L300.442 316.246H304.958L310.038 310.238L316.812 310.784L319.634 311.877L322.457 314.608L326.408 316.246L330.359 317.338L335.439 321.708H343.342L346.164 323.892L346.729 344.101L342.777 345.739H329.23L327.537 344.647L325.279 343.008H320.199L319.07 349.016V352.839H325.279L328.666 355.57H330.359L333.181 357.755V360.486L328.666 364.309L325.279 368.132L322.457 367.586L321.892 373.594L319.07 374.686L316.247 376.871L315.683 379.055H310.038L308.345 380.148L306.651 383.425V385.063L304.394 388.886H302.136L300.442 391.071V395.986L298.184 397.625V405.271L294.233 406.91L293.669 405.271L290.282 403.633L286.895 399.264H281.815V401.994L276.735 400.902L275.606 398.717L272.783 400.356H269.961L267.703 397.079L266.574 397.625H262.623L259.8 398.717L253.027 400.902L248.511 401.994H246.253L244.56 400.356H240.608L237.222 401.994L235.528 405.271L230.448 406.364H226.497L220.852 404.725L217.465 403.633L220.852 400.356V397.625H211.82L205.047 398.717L204.482 401.994L201.096 405.271L199.967 410.187L192.064 410.733L189.806 412.918L186.419 410.187L184.726 405.271L183.033 406.364H172.308L166.663 403.633H163.276L160.454 400.356L154.245 398.717L149.164 397.625L145.778 393.802V389.432L142.955 391.617Z" fill="#F5E8E8" fill-opacity="0.6" stroke="#FD0808"/>
<path d="M376.287 251.723H372.895V253.352L377.418 260.954L384.202 266.384V271.272H378.548L375.156 274.53L377.418 276.159L380.245 278.331V281.046H377.418L378.548 283.218V284.847L380.81 287.019L384.768 289.734L388.725 290.82L391.552 293.535L389.291 295.707L384.202 296.793L380.81 295.707L378.548 296.25L376.287 298.422L373.46 300.595L370.068 302.224L368.371 303.853L364.414 304.939L362.718 306.568L359.891 310.369V314.17L360.456 316.885L363.283 318.514L365.544 321.772L364.979 325.573H374.591L376.852 323.401L378.548 324.487L381.941 327.202L386.464 328.832L387.595 332.633H391.552L394.379 327.746L396.641 325.573L398.902 329.918H401.164L406.252 327.202H413.602L416.995 325.03V319.6H423.214L427.172 322.315L428.868 325.573L431.695 327.746L433.956 331.004L436.218 330.461L437.349 328.832V327.746L439.045 323.401L443.568 323.944H447.526L449.787 321.772V314.713L458.268 308.74L459.964 306.568H467.314V301.681L472.403 300.595L474.664 297.879L474.099 296.25L469.576 292.992L467.314 290.277V288.648L475.795 283.218L476.926 278.331H478.622L479.753 275.616L476.926 271.272L472.403 275.616L469.576 276.702H459.399L457.137 278.331L450.353 276.702L448.091 272.901H445.829L443.568 276.702H441.872L436.218 272.901H435.087L424.91 270.186L421.518 272.901L417.56 271.272V267.47L414.733 265.298L412.472 267.47L409.645 268.013H405.122V267.47L401.164 265.298L399.468 263.126L397.206 263.669L392.118 260.411L390.422 257.696L390.987 253.895H388.725L381.375 249.551L378.548 250.094L376.287 251.723Z" fill="#F5E8E8" fill-opacity="0.6" stroke="#FD0808"/>
<path d="M102.846 445.875V438.243H106.799V433.882L110.751 432.791L114.704 435.517H120.916V427.885L122.045 423.524L125.998 424.614H129.951L131.645 421.888V414.256L123.739 411.531L125.998 409.895H129.951L133.904 406.624L135.598 402.808L139.55 400.628H133.904L129.951 398.992V395.721L135.598 391.905H139.55V391.36H143.503L145.762 389.18V393.541L149.15 397.357L160.444 400.083L163.267 403.353H166.655L172.302 406.079H183.031L184.725 404.989L186.42 409.895L189.808 412.621L192.066 410.44L199.972 409.895L201.101 404.989L204.49 401.718L205.054 398.447L211.83 397.357H220.866V400.083L217.477 403.353L226.512 406.079H230.465L235.547 404.989L237.241 401.718L240.63 400.083H244.582L246.276 401.718H248.535L262.652 397.357H266.605L267.735 396.812L269.993 400.083H272.817L275.64 398.447L276.77 400.628L281.852 401.718V398.992H286.934L290.322 403.353L293.71 404.989L294.84 408.26L288.628 413.711L291.452 418.072L292.016 421.343L290.322 424.614L294.84 427.34V432.246H290.322V435.517H293.146V437.698L290.322 439.878V443.149L293.71 445.33L298.228 450.781V456.232H293.71L292.016 454.052H290.322L289.193 457.323V462.774L286.934 464.41V472.587L284.111 472.042H281.287L279.028 469.861V466.045L277.899 463.319V456.778L279.028 455.687L277.899 452.962L275.076 449.146H272.817V451.871H268.864L266.605 450.781L262.652 449.691L262.088 448.055H258.135L257.006 449.146H254.182L252.488 446.42L250.229 443.694H244.018L240.065 442.604V448.6L237.806 454.052V456.232L234.983 457.868L229.901 456.232L228.771 457.323L225.948 463.319L229.901 468.226V469.861L227.077 472.042L225.948 473.677L223.689 475.858L221.43 476.948L220.866 480.219H217.477L216.913 479.128L215.783 478.038L214.089 478.583L211.266 482.399L208.442 484.58H205.054L203.925 486.76V491.122H201.666L199.972 495.483H193.196L191.502 499.844V503.66H189.243L184.725 502.57L182.467 503.66L175.69 501.479H173.996L172.302 504.75L173.996 507.476V512.927H165.526L163.832 515.653H161.009L159.315 514.018L155.926 515.653L154.797 518.924L150.844 520.014V523.83L148.021 522.195H144.633L142.374 523.83V527.646L144.633 530.917H148.021L147.456 536.914L145.762 538.549L141.244 545.091H133.904L132.209 547.271L130.515 548.362L128.257 544.546L124.869 540.185V534.733L122.61 532.553L120.916 528.737V523.285L119.222 518.924V516.198L118.092 510.747V507.476L116.398 503.66V500.389L114.139 496.573V493.302L111.881 489.486L112.445 486.76L109.622 481.309V474.767L106.799 472.587V452.962L102.846 445.875Z" fill="#FD0808" stroke="#FD0808"/>
<path d="M131.441 547.072L129.741 548.174L129.174 551.481H131.441V553.135L133.142 556.993L134.843 559.198V563.056L137.11 565.812L138.811 563.607H140.511L141.645 562.505V547.072L140.511 544.867H133.142L131.441 547.072Z" fill="#F5E8E8" fill-opacity="0.6" stroke="#FD0808"/>
<path d="M137.49 566.692V565.602L139.179 563.421H140.868L141.994 561.786V547.069L141.431 544.344L145.371 538.348L147.06 536.712L147.623 530.717H144.245L141.994 527.446V523.631L144.245 521.995H147.623L150.438 523.631V519.815L154.378 518.725L155.504 515.454L158.882 513.819L160.571 515.454H163.385L165.074 512.729H173.518V507.278L171.829 504.553L173.518 501.282H175.207L181.962 503.463L184.214 502.372L188.717 503.463H190.969V499.647L192.658 495.286H199.413L201.102 490.926H203.354V486.565L204.48 484.385H207.857L210.672 482.204L213.487 478.389L215.175 477.844L216.301 478.934L216.864 480.024H219.679L220.242 482.204V490.926L219.679 492.561L219.116 496.922L221.931 499.647L220.805 501.282L220.242 502.917L216.864 504.553L216.301 506.733L216.864 509.458V518.18L216.301 523.631H214.05V526.901H216.301L220.242 528.536V532.897L219.116 536.167L216.301 537.258H210.672L209.546 538.348V545.979L207.857 549.249V552.52L210.109 555.245L210.672 558.516L207.294 560.151L201.102 559.606L202.228 562.876L203.354 565.057L201.102 567.782V571.053L202.228 572.688L203.354 575.413L204.48 575.958V581.409L205.605 578.684L209.546 578.139H212.924L216.301 578.684V584.68H210.672L209.546 581.409H207.294L205.605 583.044L205.043 585.225L206.731 586.86V590.13L207.294 591.766L211.235 591.221L214.612 587.95L219.116 591.221L225.308 588.495L227.56 587.95L229.812 588.495H232.063L232.626 590.675L233.752 593.401L236.004 594.491H239.382L241.07 597.762V602.122H245.574V603.212L242.196 607.028V611.934L238.819 612.479L236.004 614.659L232.626 612.479H229.812L226.434 611.934L225.308 613.569L223.619 616.839H220.242L220.805 622.29L219.116 624.47V627.741L224.182 629.376V632.102V634.827L218.553 635.372L217.427 637.007H208.983L205.043 638.643L202.791 641.913H199.413L196.599 638.643H192.658L190.406 637.007H187.029L184.214 635.372L179.147 633.737L177.459 631.011L172.955 628.831L170.141 625.561L166.763 622.835L164.511 619.565L156.63 615.204L154.941 610.843H153.815V602.667L152.69 598.852V594.491L151.001 591.221V589.585L147.623 586.86V579.774L144.245 578.139V573.778L140.305 568.327L137.49 566.692Z" fill="#F5E8E8" fill-opacity="0.6" stroke="#FD0808"/>
<path d="M158.149 619.167L157.584 615.383L164.923 619.708L167.181 622.952L170.568 625.655L173.391 628.899L177.907 631.061L180.166 633.764L184.682 635.386L187.505 637.008H190.892L193.15 638.63L194.279 642.414L190.892 644.577L192.585 648.902H195.973L197.102 652.686L200.489 653.227L202.183 657.011L201.618 660.796L203.876 665.662V669.446L205.57 672.69L208.393 674.312L211.215 672.69H212.909L213.473 676.474V687.287L214.602 691.612L218.554 692.153L217.425 695.937L213.473 697.559V700.262L211.215 704.587L212.909 708.372V710.534L213.473 712.697V717.022L211.215 720.806L206.699 717.022L203.876 712.697H201.618L200.489 708.372L197.102 703.506L194.279 700.262V695.396L192.585 692.153V690.531H194.279L192.585 682.962V680.799L190.892 679.177L189.198 673.771L186.376 669.446V667.824L184.682 662.958L181.295 660.796L180.166 656.471V653.227L175.085 645.658L172.262 638.63H170.004L166.617 634.305L164.358 629.439L158.149 619.167Z" fill="#F5E8E8" fill-opacity="0.6" stroke="#FD0808"/>
<path d="M476.134 259.324L472.133 256.626L473.276 253.929V247.455L474.991 245.297V242.599L476.134 238.283L478.992 238.823L481.278 237.204L485.851 235.586H492.71V241.52L494.997 243.139L493.853 247.455V254.468L492.71 256.087L490.995 257.166L485.28 257.705L482.993 259.324H476.134Z" fill="#F5E8E8" fill-opacity="0.6" stroke="#FD0808"/>
<path d="M569.656 249.822V265.708L574.199 262.969L580.446 263.517L583.286 260.778H588.965L593.508 263.517H608.273L609.409 261.873L613.952 261.325L615.088 256.943L617.36 255.3L617.928 252.013L624.175 247.631L628.15 248.178L630.99 243.796H634.397L635.533 242.153L641.78 241.605L644.619 239.414H649.163L652.57 238.866L654.842 235.579H661.657L663.928 237.77L661.657 243.796V248.178L663.36 252.013V255.3L659.385 254.752L654.274 255.848L651.434 259.134L649.163 259.682L646.891 262.969L647.459 271.186L654.274 267.899L659.385 264.064L666.768 256.943L671.879 255.3H675.854L680.397 254.204L683.237 255.3L684.941 256.943L687.212 257.491L689.484 260.23H691.755V255.3L688.916 253.109L687.78 250.37L687.212 245.987L688.916 243.248L691.755 240.509L694.595 239.962L698.002 237.77V230.649L696.867 227.91L693.459 226.267L691.188 226.814H687.78L687.212 223.528L684.941 222.98L683.237 220.789L681.533 220.241L676.99 221.884L677.558 219.693L679.262 217.502V214.763L676.99 209.833L673.583 207.094L672.447 205.998L673.583 202.164L672.447 201.068H670.175L669.607 199.973H661.089L660.521 201.068L657.681 202.164L655.977 204.355L652.002 205.451L649.163 207.642L644.619 207.094L641.78 205.451H638.372L636.101 203.259L629.854 202.164L626.446 203.259L625.878 208.737L621.903 212.024L618.496 215.311L613.952 215.859L612.817 217.502L607.138 219.145L603.73 218.598L602.026 220.241L596.347 223.528V225.719H592.94L592.372 228.458L588.397 232.292L586.125 232.84V236.675L582.718 239.962L575.335 241.057H573.631L569.656 242.7H565.113L561.705 241.057L559.434 246.535L561.705 249.822H569.656Z" fill="#F5E8E8" fill-opacity="0.6" stroke="#FD0808"/>
<path d="M644.6 262.812H646.858L647.423 271.041L644.6 272.687V274.881L642.342 278.172L644.6 284.755L646.858 287.498L643.471 291.338L641.778 292.435L641.213 296.275L638.955 296.823L637.261 299.566L635.568 301.76L634.439 302.309L632.745 303.406V300.115L631.051 298.469H628.793L626.535 299.566L623.712 301.212H621.454L616.938 299.566H613.551L611.292 301.212V305.6L607.905 308.892H602.824L605.083 305.052V302.857L601.695 301.212L602.824 296.823L606.212 294.629L609.599 290.789L612.986 291.886L616.938 288.046L619.196 284.206L620.325 282.012L623.712 277.075L627.664 274.332H628.793L635.568 268.298L644.6 262.812Z" fill="#F5E8E8" fill-opacity="0.6" stroke="#FD0808"/>
<path d="M601.939 309.781L603.062 308.698H608.118L611.489 305.452V301.123L613.736 299.5H617.107L621.601 301.123H624.41L628.904 298.418H631.151L632.836 300.041V302.747L631.151 308.698L635.083 311.404L635.645 312.486L633.96 317.356L632.274 319.52L631.151 321.684L628.904 323.849L626.657 327.636L625.533 331.965L623.286 335.211V337.917L622.162 341.704H616.545L614.298 340.622H610.365L606.433 340.081H604.186L601.939 338.999V337.376H594.074V326.554L597.445 322.767V317.356L599.13 315.191L600.815 312.486L601.939 309.781Z" fill="#F5E8E8" fill-opacity="0.6" stroke="#FD0808"/>
<path d="M591.41 328.438L593.659 329.528V337.158H601.528V338.794L603.777 339.884L602.652 341.519V349.695L603.777 354.055V361.686L602.652 363.321L599.28 364.411L597.593 366.592L596.469 368.772V376.403L597.593 379.423V384.034L592.534 387.849L591.972 390.574L586.913 387.849H585.227L584.665 388.939H582.978V383.489V379.128L581.854 378.583V373.132L579.043 367.137L577.919 363.321V356.236L576.795 354.055L575.109 349.695L573.984 348.06L577.357 342.609V338.794L578.481 335.523L580.73 333.343L586.351 331.708L588.037 329.528L591.41 328.438Z" fill="#F5E8E8" fill-opacity="0.6" stroke="#FD0808"/>
<path d="M361.729 332.424L360.588 336.218H363.442L365.154 337.844V341.638L372.004 348.684V350.852H374.858V356.272L376.57 359.524L378.853 363.318L382.849 365.486H385.132V369.822L380.565 371.99L376.57 374.158V379.036L377.712 379.578L387.415 382.83L391.41 380.662L399.402 379.036L403.397 379.578V382.83L401.114 386.624L403.397 388.792H406.251L408.534 387.708L415.384 386.624L417.096 388.792L423.375 389.876L425.658 386.624V379.578L426.799 377.952H430.795L433.078 380.662L439.928 382.83L442.781 384.456L444.494 382.288V379.578L441.069 374.158L436.503 371.99L434.79 369.822V368.738L436.503 367.654V365.486H430.795L426.799 363.318L423.375 361.15V353.02L425.658 350.852H426.799L428.512 353.02L431.936 352.478L434.22 350.852L436.503 348.684H441.069L442.781 345.974L444.494 343.264L449.06 341.096L450.202 343.264L454.197 345.432L455.91 344.348V338.928H460.476L462.188 335.676H463.33L465.042 333.508V331.34H467.325V327.546L468.467 325.378L470.75 324.836V318.332L467.896 312.912V307.492H460.476L458.764 309.66L450.202 315.622V323.21L447.919 324.836L443.923 324.294H439.928L437.644 328.63V329.714L436.503 331.34H434.22L431.936 328.63L429.083 326.462L427.37 323.21L423.375 320.5H417.096V326.462L413.1 328.63H406.251L401.114 331.34H398.831L396.548 326.462L393.694 328.63L391.41 333.508H387.415L386.273 330.256L380.565 327.546L376.57 324.294L374.287 326.462H361.729V327.546L363.442 330.256L361.729 332.424Z" fill="#F5E8E8" fill-opacity="0.6" stroke="#FD0808"/>
<path d="M564.49 265.592H570.147L574.672 262.864L580.895 263.41L583.723 260.682H589.38L593.906 263.41H608.614L609.745 261.773L614.271 261.227L615.402 256.863L617.665 255.226L618.231 251.953L624.453 247.588L628.413 248.134L631.242 243.769H634.636L635.767 242.133L641.99 241.587L644.818 239.405H649.344L652.738 238.859L655.001 235.586H661.789L664.052 237.768L661.789 243.769V248.134L663.486 251.953V255.226L660.092 254.681L654.435 255.772L651.607 259.045L649.344 259.591L647.081 262.864H644.818L635.767 268.32L629.544 273.775H628.413L624.453 276.503L620.493 283.05L617.099 287.96L613.139 291.779L609.745 290.688L606.351 294.507L602.957 296.689L602.391 301.053L605.22 302.69V304.872L602.391 309.782L600.694 312.51L599.563 315.238L597.3 317.42V322.876L593.906 326.695V329.968L591.643 328.877L588.249 329.968L587.118 332.15L580.329 333.787L578.632 335.424L576.369 329.423L572.409 326.695L574.107 321.785V318.511L575.804 317.42H578.066H580.329V315.238L578.066 314.147V313.601L587.683 307.055V304.872L585.986 304.327L582.592 298.326L576.369 294.507L574.107 293.961V289.597L578.066 286.869H564.49L561.096 289.051L559.399 291.779L556.57 292.324L554.873 293.961H551.479L549.782 292.324L544.691 290.142H541.862L537.337 289.051H526.588L523.76 289.597L522.628 290.688L519.8 293.961V297.234L518.103 296.689L516.972 294.507V290.688L514.709 286.869L513.012 284.141L514.709 282.504H516.406V277.049L518.669 275.412V272.139L516.406 269.956L515.84 268.32L522.628 268.865L526.023 265.592H529.983L533.942 267.229L560.53 267.774L564.49 265.592Z" fill="#F5E8E8" fill-opacity="0.6" stroke="#FD0808"/>
<path d="M518.591 298.531L519.715 296.898V293.63L523.648 289.274L526.458 288.729H537.134L541.629 289.818H544.439L549.496 291.996L550.62 293.63H554.553L556.239 291.996L559.049 291.452L560.734 288.729L564.106 286.551H577.592L573.658 289.274V293.63L575.906 294.175L582.087 297.987L585.458 303.977L587.144 304.522V306.7L577.592 313.779L573.658 312.69L571.411 308.878H565.23L559.61 310.512H554.553L551.744 308.334H546.686L543.877 309.423L540.505 308.878L536.572 309.967H528.143L524.772 307.789L523.086 308.334L518.591 307.244L516.905 306.155L515.781 303.432L518.591 300.71V298.531Z" fill="#F5E8E8" fill-opacity="0.6" stroke="#FD0808"/>
<path d="M234.82 41.2643H222.387V38.5437L220.126 34.7349L214.474 33.1026L209.953 30.382L208.258 26.5732L204.302 22.7645L198.65 20.588L194.129 16.2351L190.173 15.691L186.217 9.70578L181.13 6.44111V1L178.87 1L173.783 2.63233H170.958L167.002 1H163.045L159.089 2.63233H143.83V6.44111H129.701L130.832 9.70578L126.876 16.2351L122.92 15.691L118.964 20.0439L116.703 26.5732L122.92 30.382L130.832 30.9261L133.092 36.3672L141.005 38.5437V41.2643L144.395 41.8084L147.221 45.6171L155.698 49.4259H161.915L163.045 53.7788L170.958 55.4111H174.914L177.739 61.3964V66.8375L178.87 70.6463L181.13 69.558L186.217 73.3668V76.6315H188.477L190.738 80.4403L196.389 83.1608L194.129 90.2343H198.65L202.041 91.8666L208.258 98.396V100.572L212.214 103.293H218.996H222.387L224.082 101.661L227.473 103.293L230.864 107.102V109.822L233.69 110.911L239.341 109.822V110.911L243.862 113.087L247.253 115.808L250.644 110.911V116.896H258.556L260.817 115.808H263.078L265.903 110.911V93.499H259.687L254.035 90.2343L255.165 85.8814L256.296 83.1608L255.165 80.4403L254.035 75.5433H265.903L267.599 69.558V65.2052H272.12V63.5728V60.3082H278.337L280.597 57.0435V51.0583L282.293 44.5289V41.2643L278.337 38.5437V36.9114H273.815L270.99 35.8231L265.903 31.4702L263.078 26.5732H255.165L249.514 33.1026L234.82 41.2643Z" fill="#F5E8E8" fill-opacity="0.6" stroke="#FD0808"/>
<path d="M472.661 260.737L471.531 256.377L475.486 259.102H482.266L484.526 257.467L489.611 256.922L491.306 255.832L493.001 260.737L495.826 263.463V265.643H507.126L510.516 268.368H515.036L515.601 270.003L517.861 272.183V275.453L515.601 277.088V282.539H513.906L512.211 284.174L510.516 284.719L509.386 289.079H508.821L505.431 287.989L501.476 285.264L498.651 283.084V279.814L496.391 277.634H494.696V280.904H493.001L489.611 279.269L483.961 279.814L475.486 287.989V290.714L478.876 293.44L481.136 294.53L482.831 298.89L486.786 302.705L490.176 302.16L493.001 304.34L495.826 307.611L495.261 309.246H490.176L485.091 310.336L482.266 312.516L481.701 314.696L474.356 319.601V323.962L475.486 326.142L477.746 328.322L480.006 329.412L482.266 331.047H489.046V336.498L490.176 338.678V340.858L487.916 343.038L485.091 344.673V346.853L486.786 350.124L487.351 351.214L490.176 352.849L490.741 357.209L495.261 362.659L493.566 367.565V370.835L495.826 374.65V382.826L498.086 387.186V389.366L494.696 390.456L498.086 393.727V402.447L494.696 400.267H487.916V394.272H487.351L485.091 400.267H481.136L477.746 397.542L475.486 394.272V389.911L477.746 387.186L474.356 385.006L471.531 379.011L470.966 380.646V382.826L473.226 386.096L473.791 387.731V389.911L472.096 392.636L470.401 394.817L463.056 398.632L461.361 399.177L460.231 398.087L459.101 395.907L457.971 394.817H454.581L451.756 390.456L446.671 387.731L442.151 384.461L443.846 382.281V379.556L440.456 374.105L435.936 371.925L434.241 369.745V368.655L435.936 367.02V365.385H430.286L422.941 361.024V352.849L425.201 350.669H426.331L428.026 352.849L431.416 352.304L433.676 350.669L435.936 348.488H440.456L443.846 343.038L448.366 340.858L449.496 343.038L453.451 345.218L455.146 344.128V338.678H459.666L461.361 335.408H462.491L464.186 333.227V331.047H466.446V327.777L467.576 325.052L469.836 324.507V317.966L467.011 312.516V302.16L472.661 301.07L474.356 297.8L473.791 296.165L469.271 293.44L467.011 290.169V289.079L475.486 283.629L476.616 278.724H478.311L479.441 275.998L476.616 271.638L473.791 273.818L475.486 267.823V264.008L472.661 260.737Z" fill="#F5E8E8" fill-opacity="0.6" stroke="#FD0808"/>
<path d="M291.576 474.724L286.451 472.55V464.396L288.729 462.766V457.33L289.868 454.069H291.576L293.284 456.243H297.839V455.699V450.807L293.284 445.372L289.868 443.198V439.936L292.715 437.762V435.588H289.868V432.327H294.423V427.435L289.868 424.717L291.576 421.455L291.006 418.738L288.159 413.846L294.423 408.41L293.853 406.779L297.839 405.149V397.539L300.117 395.908V391.016L301.825 388.842H304.103L306.38 385.037V383.407L308.089 380.145L309.797 379.058H315.491L316.06 376.884L318.907 374.71L321.754 373.623L322.324 367.1L325.171 368.187L328.587 364.926L333.142 360.577V357.859L330.295 355.685H328.587L325.171 352.967H318.907V348.619L320.046 343.183H325.171L329.157 345.901H342.822L346.808 344.271V343.183H356.488L358.766 339.379L361.613 336.117H363.89L365.599 338.291V341.553L372.432 348.619V350.793H375.279V356.229L379.264 363.295L383.25 365.469H385.528V369.818L376.987 374.166V379.058L374.709 380.145L368.446 386.124L365.599 387.211V394.821L363.89 398.083L362.182 400.8L361.043 404.062L357.058 410.041L355.349 410.584V411.671H343.392L339.406 416.02H337.698V437.762H345.1L346.808 442.654L343.392 445.372L334.281 439.936L327.448 437.762L324.032 439.936V442.654L325.74 445.372L329.157 449.72V452.438L331.434 457.33V469.288L329.157 472.55L322.324 480.159L317.769 482.877L316.06 486.139V493.205L313.213 492.661H305.242L303.533 491.574L301.825 487.769L300.117 485.051H297.839L295.562 480.703V477.985L294.423 476.898L291.576 474.724Z" fill="#F5E8E8" fill-opacity="0.6" stroke="#FD0808"/>
<path d="M322.008 492.662L316.938 493.208V486.101L318.064 482.821L323.135 480.088L329.897 472.981L332.15 469.154V456.581L329.897 452.207V448.381L325.389 442.914V439.634L328.77 437.447L335.531 440.18L343.983 445.101L347.363 441.821L345.673 437.447H338.348V415.58H340.039L343.983 411.207H355.815V410.113L357.505 409.567L361.449 403.553L362.576 400.273L365.957 394.26V386.606L368.774 385.513L374.972 379.499L377.226 378.406L387.931 382.233L391.875 380.046L399.763 378.406L403.707 378.953V382.233L401.454 386.059L403.707 388.246H407.088L408.778 387.153L415.54 386.059L417.23 388.246L423.428 389.339L425.682 386.059V378.953L426.809 377.312L431.316 377.859L432.443 380.046L439.768 382.233L442.585 383.873L447.656 387.153L452.727 389.886L454.981 393.713H457.798L459.488 395.353L460.615 397.54L461.742 398.633L454.981 399.726L451.037 401.913L448.783 403.553V405.74L445.966 408.473V414.487L447.656 417.767L448.783 421.593L447.656 425.967L444.839 427.607V431.434L439.768 433.074L437.514 435.807L435.824 439.634L434.133 440.727L433.57 439.634L431.316 439.087L429.062 436.354L429.626 441.821V442.914H426.809L423.991 444.007L417.23 443.461L413.849 441.821H409.905L405.398 446.194L405.961 448.381L404.271 450.567L403.707 454.394L400.89 457.127L397.51 460.954L392.439 460.408L389.058 463.141H385.677V468.061H377.789L372.718 467.514L368.211 463.141L367.084 460.954L361.449 460.408L359.759 463.141V469.701H355.815L355.252 478.448L349.054 478.995L349.617 480.088L341.729 481.181L341.165 478.448H339.475V475.715H337.221L336.095 477.901V487.741L332.714 486.648L328.77 489.382L326.516 488.835L322.008 491.022V492.662Z" fill="#F5E8E8" fill-opacity="0.6" stroke="#FD0808"/>
<path d="M311.239 497.742V492.858H306.681L304.403 491.773L302.694 488.518L300.985 485.262H298.706L296.427 480.922V478.209L292.44 474.953L287.313 472.783L284.464 472.24H281.616L279.337 470.07V466.272L278.198 463.308V457.048L279.337 455.963L278.198 453.25L275.349 449.452H273.071V452.165H269.653L266.804 451.08L262.817 449.995L262.247 448.367H258.259L257.12 449.452H254.272L252.563 446.739L250.284 444.027H244.587L240.03 442.941V448.91L237.751 454.335V456.506L234.903 458.134L229.776 456.506L228.636 458.134L225.788 463.559L229.776 468.442V470.07L226.927 472.24L226.358 473.326L223.509 476.039L221.231 477.124L220.661 480.379H220.091L220.661 482.549V491.231L220.091 492.858L219.522 497.199L222.37 499.912L221.231 501.54L220.661 503.167L217.243 504.795L216.673 506.965L217.243 509.678V518.359L216.673 523.785L214.395 524.328V527.041H216.673L220.661 528.668V533.009L219.522 536.264L221.8 537.892L229.206 532.466L234.333 530.296L241.739 532.466L249.714 529.211L253.702 532.466L261.677 529.211V525.955L267.374 521.615H270.792L274.21 522.7L277.628 519.445L279.907 516.732L284.464 512.391L288.452 510.221L290.161 512.391H294.149L295.288 507.508L299.845 504.795H302.694L307.821 507.508L309.53 502.625H316.935V498.827L313.517 497.742H311.239Z" fill="#F5E8E8" fill-opacity="0.6" stroke="#FD0808"/>
<path d="M284.329 598.716L287.145 596.539V606.337L285.456 611.78V616.679L284.329 618.857L283.203 623.756L281.513 624.844L279.824 627.566L277.571 629.199L274.755 633.009H271.939V636.82L273.629 638.453V647.162L271.939 648.251L274.755 650.972V671.657L273.065 672.746H265.744L263.491 674.379L262.365 676.556V681.999L258.986 683.088L256.17 687.443L254.48 690.709L255.607 694.519L258.986 695.608L265.744 696.152L266.87 699.418L263.491 697.785H252.791L247.722 698.874L246.032 700.507L242.653 702.14H239.837L236.458 707.039V714.115L234.205 717.381L226.321 722.28L224.068 723.369L220.689 725.002H214.494L211.115 721.191L213.367 717.381V712.482L212.804 710.849V708.672L211.115 704.861L213.367 700.507V697.785L217.31 696.152L218.436 692.342L214.494 691.797L213.367 687.443V676.556L212.804 672.746H211.115L208.299 674.379L205.483 672.746L203.793 669.48V665.669L201.54 660.77L202.104 656.96L200.414 653.15L197.035 652.605L195.909 648.795L192.529 648.251L190.84 644.44L194.219 642.263L193.093 638.453H197.035L199.851 641.719H203.23L205.483 638.453L209.425 636.82H217.873L218.999 635.187L224.631 634.642V629.199L219.562 627.022V624.3L221.252 622.123L220.689 616.679H224.068L225.194 613.413L226.884 611.78L230.263 612.325H233.079L239.274 616.679L244.343 616.135L246.032 613.413L247.722 610.147L251.101 607.97H256.733L261.238 606.881L264.054 603.071H274.755L279.824 597.628L284.329 598.716Z" fill="#F5E8E8" fill-opacity="0.6" stroke="#FD0808"/>
<path d="M395.047 463.802L397.306 461.632L392.224 461.09L388.836 463.26H385.447V468.685H376.412L372.46 468.142L367.942 463.802L366.813 461.632L361.166 461.09L359.472 463.802V470.312L355.519 470.854L354.954 478.992L348.743 479.534L349.307 480.619L341.402 481.704L340.837 478.992H339.143V476.279H336.884L335.755 478.992V488.214L332.367 487.129L328.414 490.384L326.155 488.756L321.638 491.469V493.096H317.12H314.297L310.909 492.554V497.978H313.167L316.555 499.063V502.861H309.215L307.52 507.743L302.438 505.031H299.615L295.097 507.743L293.968 512.625H290.015L288.321 510.455L283.804 512.625L279.851 516.965L278.157 519.135L274.204 522.932L271.38 521.847H267.428L261.781 526.187V529.442L253.875 532.697L249.922 529.442L242.017 532.697L234.676 530.527L229.029 532.697L222.253 538.122L219.994 536.494L217.17 537.579H211.524L210.394 538.664V546.259L208.7 550.056V552.769L210.959 555.481L211.524 558.736L207.571 560.363L201.924 559.278L203.053 563.076L204.183 565.246L201.924 567.958V571.213L203.053 572.84L204.183 575.553L205.312 576.095V580.978L206.441 578.808L210.394 578.265H214.347L217.17 578.808V584.775H211.524L210.394 581.52H208.135L206.441 583.147L205.877 585.317L207.571 586.945V590.2L208.135 591.827L212.088 591.285L215.476 588.03L219.994 591.285L226.205 588.572L228.464 588.03L230.723 588.572H232.982L234.676 593.455L236.934 593.997L240.323 594.54L242.017 597.794V602.134H246.534V603.219L243.146 607.017V611.899L239.758 612.441L236.934 614.611L239.758 616.781L244.84 616.239L247.099 612.984L248.228 610.271L251.616 608.101H257.263L261.781 607.017L264.604 603.219H275.333L280.415 597.794L284.933 598.879L287.756 597.252V593.455L284.933 586.945L283.804 580.978L284.933 577.723V574.468L282.674 569.043L282.11 556.566L284.368 552.769V551.141L290.58 543.004L294.533 541.377H299.05L300.18 543.004H301.874L304.132 541.919L307.52 539.207V536.494L309.215 533.782V528.9H324.461L335.755 524.017L336.884 522.39V509.913L340.837 507.743L348.743 505.031L355.519 501.776L359.472 497.436L361.166 494.723L363.989 493.096L366.813 489.841L368.507 487.129L372.46 484.416L374.718 482.246H376.977L379.236 480.077L382.624 478.449L388.836 472.482L392.224 468.685L395.047 463.802Z" fill="#F5E8E8" fill-opacity="0.6" stroke="#FD0808"/>
<path d="M571.956 328.502L573.102 326.348L576.54 329.041L578.831 334.965L577.686 338.735V342.505L574.248 347.891H570.81L569.664 348.968L567.373 352.2V355.431H565.654L564.508 359.201V364.049H558.206L555.341 359.74H553.622L553.05 355.431L550.185 353.277L549.039 348.968V343.582L551.331 341.428L559.925 335.504H562.789L567.373 332.811V331.734L568.519 329.579L571.956 328.502Z" fill="#F5E8E8" fill-opacity="0.6" stroke="#FD0808"/>
</svg>
